REM DIRINDEX 1\6,1\2\7,1\2\8,1\2\9,1\3\10,1\3\11,1\4\12,1\4\13,1\4\14,1\5\15,1\5\16,1\5\17
REM DIRNAME folder01,folder02,folder03,folder04,folder05,folder06,folder07,folder08,folder09,folder10,folder11,folder12,folder13,folder14,folder15,folder16,folder17
TITLE ""
FILE "3Q_t_0723-0738.mp3" MP3
  TRACK 01 AUDIO
    TITLE "10:cjc041_3056"
    INDEX 01 00:00:00
  TRACK 02 AUDIO
    TITLE "0:"
    INDEX 01 00:01:11
  TRACK 03 AUDIO
    TITLE "11:cjc041_3057"
    INDEX 01 00:01:66
  TRACK 04 AUDIO
    TITLE "0:"
    INDEX 01 00:02:71
  TRACK 05 AUDIO
    TITLE "10:cjc041_3058"
    INDEX 01 00:03:49
  TRACK 06 AUDIO
    TITLE "0:"
    INDEX 01 00:04:74
  TRACK 07 AUDIO
    TITLE "11:cjc041_3059"
    INDEX 01 00:05:48
  TRACK 08 AUDIO
    TITLE "0:"
    INDEX 01 00:06:59
  TRACK 09 AUDIO
    TITLE "10:cjc041_3060"
    INDEX 01 00:07:39
  TRACK 10 AUDIO
    TITLE "0:"
    INDEX 01 00:08:58
  TRACK 11 AUDIO
    TITLE "11:cjc041_3061"
    INDEX 01 00:09:34
  TRACK 12 AUDIO
    TITLE "0:"
    INDEX 01 00:10:51
  TRACK 13 AUDIO
    TITLE "10:cjc041_3062"
    INDEX 01 00:11:25
  TRACK 14 AUDIO
    TITLE "0:"
    INDEX 01 00:12:38
  TRACK 15 AUDIO
    TITLE "11:cjc041_3063"
    INDEX 01 00:13:16
  TRACK 16 AUDIO
    TITLE "0:"
    INDEX 01 00:14:43
  TRACK 17 AUDIO
    TITLE "10:cjc041_3064"
    INDEX 01 00:15:17
  TRACK 18 AUDIO
    TITLE "0:"
    INDEX 01 00:16:26
  TRACK 19 AUDIO
    TITLE "11:cjc041_3065"
    INDEX 01 00:17:08
  TRACK 20 AUDIO
    TITLE "0:"
    INDEX 01 00:19:44
  TRACK 21 AUDIO
    TITLE "10:cjc041_3066"
    INDEX 01 00:20:18
  TRACK 22 AUDIO
    TITLE "0:"
    INDEX 01 00:21:35
  TRACK 23 AUDIO
    TITLE "11:cjc041_3067"
    INDEX 01 00:22:15
  TRACK 24 AUDIO
    TITLE "0:"
    INDEX 01 00:23:18
  TRACK 25 AUDIO
    TITLE "10:cjc041_3068"
    INDEX 01 00:23:69
  TRACK 26 AUDIO
    TITLE "0:"
    INDEX 01 00:25:19
  TRACK 27 AUDIO
    TITLE "11:cjc041_3069"
    INDEX 01 00:25:68
  TRACK 28 AUDIO
    TITLE "0:"
    INDEX 01 00:28:31
  TRACK 29 AUDIO
    TITLE "10:cjc041_3070"
    INDEX 01 00:29:09
  TRACK 30 AUDIO
    TITLE "0:"
    INDEX 01 00:30:20
  TRACK 31 AUDIO
    TITLE "11:cjc041_3071"
    INDEX 01 00:30:73
  TRACK 32 AUDIO
    TITLE "0:"
    INDEX 01 00:33:01
  TRACK 33 AUDIO
    TITLE "10:cjc041_3072"
    INDEX 01 00:33:56
  TRACK 34 AUDIO
    TITLE "0:"
    INDEX 01 00:34:65
  TRACK 35 AUDIO
    TITLE "11:cjc041_3073"
    INDEX 01 00:35:45
  TRACK 36 AUDIO
    TITLE "0:"
    INDEX 01 00:38:33
  TRACK 37 AUDIO
    TITLE "10:cjc041_3074"
    INDEX 01 00:39:13
  TRACK 38 AUDIO
    TITLE "0:"
    INDEX 01 00:40:26
  TRACK 39 AUDIO
    TITLE "11:cjc041_3075"
    INDEX 01 00:41:02
  TRACK 40 AUDIO
    TITLE "0:"
    INDEX 01 00:41:65
  TRACK 41 AUDIO
    TITLE "10:cjc041_3076"
    INDEX 01 00:42:37
  TRACK 42 AUDIO
    TITLE "0:"
    INDEX 01 00:43:50
  TRACK 43 AUDIO
    TITLE "11:cjc041_3077"
    INDEX 01 00:44:28
  TRACK 44 AUDIO
    TITLE "0:"
    INDEX 01 00:46:37
  TRACK 45 AUDIO
    TITLE "10:cjc041_3078"
    INDEX 01 00:47:17
  TRACK 46 AUDIO
    TITLE "0:"
    INDEX 01 00:48:40
  TRACK 47 AUDIO
    TITLE "11:cjc041_3079"
    INDEX 01 00:49:10
  TRACK 48 AUDIO
    TITLE "0:"
    INDEX 01 00:50:15
  TRACK 49 AUDIO
    TITLE "10:cjc041_3080"
    INDEX 01 00:50:70
  TRACK 50 AUDIO
    TITLE "0:"
    INDEX 01 00:52:14
  TRACK 51 AUDIO
    TITLE "11:cjc041_3081"
    INDEX 01 00:52:67
  TRACK 52 AUDIO
    TITLE "0:"
    INDEX 01 00:53:62
  TRACK 53 AUDIO
    TITLE "10:cjc041_3082"
    INDEX 01 00:54:44
  TRACK 54 AUDIO
    TITLE "0:"
    INDEX 01 00:55:65
  TRACK 55 AUDIO
    TITLE "11:cjc041_3083"
    INDEX 01 00:56:43
  TRACK 56 AUDIO
    TITLE "0:"
    INDEX 01 00:57:46
  TRACK 57 AUDIO
    TITLE "10:cjc041_3084"
    INDEX 01 00:58:28
  TRACK 58 AUDIO
    TITLE "0:"
    INDEX 01 00:59:47
  TRACK 59 AUDIO
    TITLE "11:cjc041_3085"
    INDEX 01 01:00:25
  TRACK 60 AUDIO
    TITLE "0:"
    INDEX 01 01:01:48
  TRACK 61 AUDIO
    TITLE "10:cjc041_3086"
    INDEX 01 01:02:22
  TRACK 62 AUDIO
    TITLE "0:"
    INDEX 01 01:03:53
  TRACK 63 AUDIO
    TITLE "11:cjc041_3087"
    INDEX 01 01:04:31
  TRACK 64 AUDIO
    TITLE "0:"
    INDEX 01 01:05:40
